<mxfile host="app.diagrams.net" modified="2022-01-05T08:14:33.255Z" agent="5.0 (X11; Linux x86_64) AppleWebKit/537.36 (KHTML, like Gecko) Chrome/96.0.4664.110 Safari/537.36" etag="yuNBWOiu6iuQRvkPuXa3" version="16.2.1" type="github">
  <diagram id="OewIwvySFvQf3lNL2ngX" name="Page-1">
    <mxGraphModel dx="1121" dy="630" grid="1" gridSize="10" guides="1" tooltips="1" connect="1" arrows="1" fold="1" page="1" pageScale="1" pageWidth="827" pageHeight="1169" math="0" shadow="0">
      <root>
        <mxCell id="0" />
        <mxCell id="1" parent="0" />
        <mxCell id="1-lrAHYOxG04-uiSaCCi-19" style="edgeStyle=orthogonalEdgeStyle;rounded=0;orthogonalLoop=1;jettySize=auto;html=1;exitX=0.25;exitY=1;exitDx=0;exitDy=0;fontSize=12;endArrow=none;endFill=0;" edge="1" parent="1" source="1-lrAHYOxG04-uiSaCCi-14" target="1-lrAHYOxG04-uiSaCCi-17">
          <mxGeometry relative="1" as="geometry">
            <Array as="points">
              <mxPoint x="144" y="590" />
              <mxPoint x="546" y="590" />
            </Array>
          </mxGeometry>
        </mxCell>
        <mxCell id="1-lrAHYOxG04-uiSaCCi-20" style="edgeStyle=orthogonalEdgeStyle;rounded=0;orthogonalLoop=1;jettySize=auto;html=1;exitX=0.75;exitY=1;exitDx=0;exitDy=0;fontSize=12;endArrow=none;endFill=0;entryX=0.5;entryY=1;entryDx=0;entryDy=0;" edge="1" parent="1" source="1-lrAHYOxG04-uiSaCCi-14" target="1-lrAHYOxG04-uiSaCCi-18">
          <mxGeometry relative="1" as="geometry">
            <Array as="points">
              <mxPoint x="188" y="510" />
              <mxPoint x="371" y="510" />
            </Array>
          </mxGeometry>
        </mxCell>
        <mxCell id="1-lrAHYOxG04-uiSaCCi-14" value="&lt;font style=&quot;font-size: 18px&quot;&gt;&lt;b&gt;Switch&lt;/b&gt;&lt;/font&gt;" style="shape=ext;double=1;rounded=0;whiteSpace=wrap;html=1;" vertex="1" parent="1">
          <mxGeometry x="121" y="430" width="90" height="40" as="geometry" />
        </mxCell>
        <mxCell id="1-lrAHYOxG04-uiSaCCi-15" value="" style="line;strokeWidth=2;html=1;rotation=90;" vertex="1" parent="1">
          <mxGeometry x="131" y="390" width="70" height="10" as="geometry" />
        </mxCell>
        <mxCell id="1-lrAHYOxG04-uiSaCCi-16" value="WAN" style="text;html=1;align=center;verticalAlign=middle;resizable=0;points=[];autosize=1;strokeColor=none;fillColor=none;" vertex="1" parent="1">
          <mxGeometry x="121" y="410" width="40" height="20" as="geometry" />
        </mxCell>
        <mxCell id="1-lrAHYOxG04-uiSaCCi-17" value="&lt;font&gt;&lt;span style=&quot;font-weight: bold ; font-size: 18px&quot;&gt;Router&lt;/span&gt;&lt;br&gt;&lt;/font&gt;" style="shape=ext;double=1;rounded=0;whiteSpace=wrap;html=1;" vertex="1" parent="1">
          <mxGeometry x="476" y="430" width="140" height="40" as="geometry" />
        </mxCell>
        <mxCell id="1-lrAHYOxG04-uiSaCCi-18" value="&lt;font&gt;&lt;font&gt;&lt;b&gt;&lt;font style=&quot;font-size: 18px&quot;&gt;Router&lt;/font&gt;&lt;/b&gt;&lt;/font&gt;&lt;br&gt;&lt;/font&gt;" style="shape=ext;double=1;rounded=0;whiteSpace=wrap;html=1;" vertex="1" parent="1">
          <mxGeometry x="301" y="430" width="140" height="40" as="geometry" />
        </mxCell>
        <mxCell id="1-lrAHYOxG04-uiSaCCi-21" value="WAN" style="text;html=1;align=center;verticalAlign=middle;resizable=0;points=[];autosize=1;strokeColor=none;fillColor=none;" vertex="1" parent="1">
          <mxGeometry x="151" y="470" width="40" height="20" as="geometry" />
        </mxCell>
        <mxCell id="1-lrAHYOxG04-uiSaCCi-22" value="WAN" style="text;html=1;align=center;verticalAlign=middle;resizable=0;points=[];autosize=1;strokeColor=none;fillColor=none;" vertex="1" parent="1">
          <mxGeometry x="331" y="470" width="40" height="20" as="geometry" />
        </mxCell>
        <mxCell id="1-lrAHYOxG04-uiSaCCi-23" value="WAN" style="text;html=1;align=center;verticalAlign=middle;resizable=0;points=[];autosize=1;strokeColor=none;fillColor=none;" vertex="1" parent="1">
          <mxGeometry x="101" y="470" width="40" height="20" as="geometry" />
        </mxCell>
        <mxCell id="1-lrAHYOxG04-uiSaCCi-24" value="WAN" style="text;html=1;align=center;verticalAlign=middle;resizable=0;points=[];autosize=1;strokeColor=none;fillColor=none;" vertex="1" parent="1">
          <mxGeometry x="501" y="470" width="40" height="20" as="geometry" />
        </mxCell>
        <mxCell id="1-lrAHYOxG04-uiSaCCi-25" value="" style="sketch=0;pointerEvents=1;shadow=0;dashed=0;html=1;strokeColor=none;fillColor=#434445;aspect=fixed;labelPosition=center;verticalLabelPosition=bottom;verticalAlign=top;align=center;outlineConnect=0;shape=mxgraph.vvd.wi_fi;fontSize=12;rotation=-90;" vertex="1" parent="1">
          <mxGeometry x="534.5400000000001" y="390" width="22.92" height="22.92" as="geometry" />
        </mxCell>
        <mxCell id="1-lrAHYOxG04-uiSaCCi-26" value="" style="sketch=0;pointerEvents=1;shadow=0;dashed=0;html=1;strokeColor=none;fillColor=#434445;aspect=fixed;labelPosition=center;verticalLabelPosition=bottom;verticalAlign=top;align=center;outlineConnect=0;shape=mxgraph.vvd.wi_fi;fontSize=12;rotation=0;" vertex="1" parent="1">
          <mxGeometry x="359.5355762261476" y="389.9955762261477" width="22.92" height="22.92" as="geometry" />
        </mxCell>
        <mxCell id="1-lrAHYOxG04-uiSaCCi-32" value="" style="group" vertex="1" connectable="0" parent="1">
          <mxGeometry x="91" y="190" width="150" height="175" as="geometry" />
        </mxCell>
        <mxCell id="1-lrAHYOxG04-uiSaCCi-13" value="&lt;font style=&quot;font-size: 18px&quot;&gt;&lt;b&gt;&lt;br&gt;&lt;br&gt;&lt;br&gt;&lt;br&gt;&lt;br&gt;Computer&lt;/b&gt;&lt;/font&gt;&lt;br&gt;Command Server&lt;br&gt;Transmission Receiver" style="shape=ext;double=1;rounded=1;whiteSpace=wrap;html=1;" vertex="1" parent="1-lrAHYOxG04-uiSaCCi-32">
          <mxGeometry width="150" height="175" as="geometry" />
        </mxCell>
        <mxCell id="1-lrAHYOxG04-uiSaCCi-30" value="" style="points=[];aspect=fixed;html=1;align=center;shadow=0;dashed=0;image;image=img/lib/allied_telesis/computer_and_terminals/Personal_Computer_with_Server.svg;fontSize=18;fillColor=#000000;" vertex="1" parent="1-lrAHYOxG04-uiSaCCi-32">
          <mxGeometry x="20" y="5" width="110" height="110" as="geometry" />
        </mxCell>
        <mxCell id="1-lrAHYOxG04-uiSaCCi-33" value="" style="group" vertex="1" connectable="0" parent="1">
          <mxGeometry x="384.54" y="190" width="150" height="175" as="geometry" />
        </mxCell>
        <mxCell id="1-lrAHYOxG04-uiSaCCi-34" value="&lt;font style=&quot;font-size: 18px&quot;&gt;&lt;b&gt;&lt;br&gt;&lt;br&gt;&lt;br&gt;&lt;br&gt;&lt;br&gt;Smuro&lt;/b&gt;&lt;/font&gt;&lt;br&gt;Command Client&lt;br&gt;Transmission Sender" style="shape=ext;double=1;rounded=1;whiteSpace=wrap;html=1;" vertex="1" parent="1-lrAHYOxG04-uiSaCCi-33">
          <mxGeometry width="150" height="175" as="geometry" />
        </mxCell>
        <mxCell id="1-lrAHYOxG04-uiSaCCi-38" value="" style="endArrow=classic;html=1;rounded=0;fontSize=18;horizontal=1;" edge="1" parent="1">
          <mxGeometry relative="1" as="geometry">
            <mxPoint x="272" y="497" as="sourcePoint" />
            <mxPoint x="240" y="497" as="targetPoint" />
          </mxGeometry>
        </mxCell>
        <mxCell id="1-lrAHYOxG04-uiSaCCi-39" value="image" style="edgeLabel;resizable=0;html=1;align=center;verticalAlign=middle;fontSize=18;fillColor=#000000;horizontal=1;" connectable="0" vertex="1" parent="1-lrAHYOxG04-uiSaCCi-38">
          <mxGeometry relative="1" as="geometry">
            <mxPoint x="4" y="-17" as="offset" />
          </mxGeometry>
        </mxCell>
        <mxCell id="1-lrAHYOxG04-uiSaCCi-40" value="" style="endArrow=classic;html=1;rounded=0;fontSize=18;horizontal=1;" edge="1" parent="1">
          <mxGeometry relative="1" as="geometry">
            <mxPoint x="359.54" y="600" as="sourcePoint" />
            <mxPoint x="300.54" y="600" as="targetPoint" />
          </mxGeometry>
        </mxCell>
        <mxCell id="1-lrAHYOxG04-uiSaCCi-41" value="robot state" style="edgeLabel;resizable=0;html=1;align=center;verticalAlign=middle;fontSize=18;fillColor=#000000;horizontal=1;" connectable="0" vertex="1" parent="1-lrAHYOxG04-uiSaCCi-40">
          <mxGeometry relative="1" as="geometry">
            <mxPoint x="1" y="20" as="offset" />
          </mxGeometry>
        </mxCell>
        <mxCell id="1-lrAHYOxG04-uiSaCCi-42" value="" style="endArrow=classic;html=1;rounded=0;fontSize=18;horizontal=1;" edge="1" parent="1">
          <mxGeometry relative="1" as="geometry">
            <mxPoint x="300" y="570" as="sourcePoint" />
            <mxPoint x="360" y="570" as="targetPoint" />
          </mxGeometry>
        </mxCell>
        <mxCell id="1-lrAHYOxG04-uiSaCCi-43" value="command" style="edgeLabel;resizable=0;html=1;align=center;verticalAlign=middle;fontSize=18;fillColor=#000000;horizontal=1;" connectable="0" vertex="1" parent="1-lrAHYOxG04-uiSaCCi-42">
          <mxGeometry relative="1" as="geometry">
            <mxPoint x="1" y="-20" as="offset" />
          </mxGeometry>
        </mxCell>
        <mxCell id="1-lrAHYOxG04-uiSaCCi-44" value="" style="endArrow=none;dashed=1;html=1;dashPattern=1 3;strokeWidth=2;rounded=0;fontSize=18;exitX=1;exitY=0.5;exitDx=0;exitDy=0;entryX=0;entryY=0.5;entryDx=0;entryDy=0;" edge="1" parent="1" source="1-lrAHYOxG04-uiSaCCi-13" target="1-lrAHYOxG04-uiSaCCi-34">
          <mxGeometry width="50" height="50" relative="1" as="geometry">
            <mxPoint x="340" y="390" as="sourcePoint" />
            <mxPoint x="390" y="340" as="targetPoint" />
          </mxGeometry>
        </mxCell>
        <mxCell id="1-lrAHYOxG04-uiSaCCi-45" value="&lt;span&gt;Ratbot-Wifi&lt;/span&gt;" style="text;html=1;align=center;verticalAlign=middle;resizable=0;points=[];autosize=1;strokeColor=none;fillColor=none;fontSize=12;" vertex="1" parent="1">
          <mxGeometry x="289.54" y="391.46" width="70" height="20" as="geometry" />
        </mxCell>
        <mxCell id="1-lrAHYOxG04-uiSaCCi-46" value="&lt;span&gt;Ratbot-Wifi2&lt;/span&gt;" style="text;html=1;align=center;verticalAlign=middle;resizable=0;points=[];autosize=1;strokeColor=none;fillColor=none;fontSize=12;" vertex="1" parent="1">
          <mxGeometry x="454.54" y="391.46" width="80" height="20" as="geometry" />
        </mxCell>
      </root>
    </mxGraphModel>
  </diagram>
</mxfile>
